<?xml version="1.0" encoding="UTF-8"?>
<svg width="20px" height="20px" viewBox="0 0 20 20" version="1.1" xmlns="http://www.w3.org/2000/svg" xmlns:xlink="http://www.w3.org/1999/xlink">
    <!-- Generator: Sketch 52.5 (67469) - http://www.bohemiancoding.com/sketch -->
    <title>icon-compete</title>
    <desc>Created with Sketch.</desc>
    <g id="slices" stroke="none" stroke-width="1" fill="none" fill-rule="evenodd" opacity="0.900000036">
        <g id="Artboard">
            <g id="Group" transform="translate(1.000000, 1.000000)">
                <path d="M6.1268017,1.38754644 C6.6888215,1.22601585 7.27537499,1.55067651 7.43690559,2.11269631 C7.59843618,2.67471612 7.27377553,3.26126961 6.71175572,3.4228002 C4.01283027,4.19850067 2.11764706,6.67817547 2.11764706,9.52941176 C2.11764706,13.0380443 4.96195571,15.8823529 8.47058824,15.8823529 C11.2150765,15.8823529 13.6236163,14.1259904 14.4896491,11.5681309 C14.6771823,11.0142449 15.2782213,10.7172572 15.8321073,10.9047904 C16.3859933,11.0923235 16.6829809,11.6933625 16.4954478,12.2472485 C15.3404136,15.658684 12.1297139,18 8.47058824,18 C3.79241153,18 0,14.2075885 0,9.52941176 C0,5.72770976 2.52620828,2.42239608 6.1268017,1.38754644 Z" id="Oval" fill="#D1D4DB" fill-rule="nonzero"></path>
                <path d="M8.47058824,12.7058824 C6.71627197,12.7058824 5.29411765,11.283728 5.29411765,9.52941176 C5.29411765,7.7750955 6.71627197,6.35294118 8.47058824,6.35294118 C10.2249045,6.35294118 11.6470588,7.7750955 11.6470588,9.52941176 C11.6470588,11.283728 10.2249045,12.7058824 8.47058824,12.7058824 Z M8.47058824,10.5882353 C9.05536032,10.5882353 9.52941176,10.1141839 9.52941176,9.52941176 C9.52941176,8.94463968 9.05536032,8.47058824 8.47058824,8.47058824 C7.88581615,8.47058824 7.41176471,8.94463968 7.41176471,9.52941176 C7.41176471,10.1141839 7.88581615,10.5882353 8.47058824,10.5882353 Z" id="Oval" fill="#CCCFD6" fill-rule="nonzero"></path>
                <path d="M8.47058824,0 C13.733537,0 18,4.26646297 18,9.52941176 C14.8235294,9.52941176 12.4411765,9.52941176 10.8529412,9.52941176 C10.8529412,9.52941176 10.5145176,9.19098819 9.83767046,8.51414105 L9.83766955,8.51414196 C9.71957443,8.39604684 9.61673655,8.26362452 9.53155731,8.11996726 C8.82424459,6.92706381 8.47058824,6.20570218 8.47058824,5.95588235 C8.47058824,4.63235294 8.47058824,2.64705882 8.47058824,0 Z" id="Path" fill="#CCCFD6"></path>
            </g>
        </g>
    </g>
</svg>