<?xml version="1.0" encoding="UTF-8"?>
<svg width="20px" height="20px" viewBox="0 0 20 20" version="1.1" xmlns="http://www.w3.org/2000/svg" xmlns:xlink="http://www.w3.org/1999/xlink">
    <!-- Generator: Sketch 52.5 (67469) - http://www.bohemiancoding.com/sketch -->
    <title>icon-upload</title>
    <desc>Created with Sketch.</desc>
    <g id="slices" stroke="none" stroke-width="1" fill="none" fill-rule="evenodd">
        <g id="icon-upload" fill="#CCCFD6">
            <g id="Group-5" transform="translate(2.000000, 2.000000)">
                <rect id="Rectangle" x="1" y="14" width="14" height="2" rx="1"></rect>
                <path d="M4,7 L12,7 C12.5522847,7 13,7.44771525 13,8 L13,8 C13,8.55228475 12.5522847,9 12,9 L4,9 C3.44771525,9 3,8.55228475 3,8 L3,8 C3,7.44771525 3.44771525,7 4,7 Z" id="Rectangle" transform="translate(8.000000, 8.000000) rotate(-90.000000) translate(-8.000000, -8.000000) "></path>
                <path d="M0.965009586,4.03374944 L8.99718374,3.99906982 C9.54285576,3.99671383 9.98936463,4.43283635 9.99984991,4.9784127 L9.99984991,4.9784127 C10.0101355,5.51360102 9.58461784,5.95579501 9.04942952,5.96608064 C9.04461698,5.96617313 9.03980381,5.96622977 9.03499041,5.96625056 L1.00281626,6.00093018 C0.457144243,6.00328617 0.010635367,5.56716365 0.000150093564,5.0215873 L0.000150093564,5.0215873 C-0.010135535,4.48639898 0.415382164,4.04420499 0.950570476,4.03391936 C0.955383024,4.03382687 0.960196194,4.03377023 0.965009586,4.03374944 Z" id="Rectangle" transform="translate(5.000000, 5.000000) rotate(-45.000000) translate(-5.000000, -5.000000) "></path>
                <path d="M6.96500959,4.03374944 L14.9971837,3.99906982 C15.5428558,3.99671383 15.9893646,4.43283635 15.9998499,4.9784127 L15.9998499,4.9784127 C16.0101355,5.51360102 15.5846178,5.95579501 15.0494295,5.96608064 C15.044617,5.96617313 15.0398038,5.96622977 15.0349904,5.96625056 L7.00281626,6.00093018 C6.45714424,6.00328617 6.01063537,5.56716365 6.00015009,5.0215873 L6.00015009,5.0215873 C5.98986446,4.48639898 6.41538216,4.04420499 6.95057048,4.03391936 C6.95538302,4.03382687 6.96019619,4.03377023 6.96500959,4.03374944 Z" id="Rectangle" transform="translate(11.000000, 5.000000) scale(-1, 1) rotate(-45.000000) translate(-11.000000, -5.000000) "></path>
            </g>
        </g>
    </g>
</svg>