<?xml version="1.0" encoding="UTF-8"?>
<svg width="20px" height="20px" viewBox="0 0 20 20" version="1.1" xmlns="http://www.w3.org/2000/svg" xmlns:xlink="http://www.w3.org/1999/xlink">
    <!-- Generator: Sketch 52.5 (67469) - http://www.bohemiancoding.com/sketch -->
    <title>icon-analyze</title>
    <desc>Created with Sketch.</desc>
    <g id="slices" stroke="none" stroke-width="1" fill="none" fill-rule="evenodd">
        <g id="Artboard" fill="#CCCFD6">
            <g id="Group" transform="translate(1.000000, 0.000000)">
                <path d="M9.29422863,19.2942286 C8.74194388,19.2942286 8.29422863,18.8465134 8.29422863,18.2942286 C8.29422863,17.7419439 8.74194388,17.2942286 9.29422863,17.2942286 C13.1602219,17.2942286 16.2942286,14.1602219 16.2942286,10.2942286 C16.2942286,6.42823539 13.1602219,3.29422863 9.29422863,3.29422863 C5.42823539,3.29422863 2.29422863,6.42823539 2.29422863,10.2942286 C2.29422863,11.3545015 2.52945782,12.3793335 2.97666606,13.3132329 C3.21519571,13.8113514 3.00475735,14.4085228 2.50663884,14.6470524 C2.00852033,14.8855821 1.41134901,14.6751437 1.17281936,14.1770252 C0.597164996,12.9748933 0.294228634,11.6550789 0.294228634,10.2942286 C0.294228634,5.32366589 4.32366589,1.29422863 9.29422863,1.29422863 C14.2647914,1.29422863 18.2942286,5.32366589 18.2942286,10.2942286 C18.2942286,15.2647914 14.2647914,19.2942286 9.29422863,19.2942286 Z" id="Oval" fill-rule="nonzero" transform="translate(9.294229, 10.294229) rotate(-179.000000) translate(-9.294229, -10.294229) "></path>
                <path d="M9.46410162,15.4641016 C8.91181687,15.4641016 8.46410162,15.0163864 8.46410162,14.4641016 C8.46410162,13.9118169 8.91181687,13.4641016 9.46410162,13.4641016 C11.1209559,13.4641016 12.4641016,12.1209559 12.4641016,10.4641016 C12.4641016,8.80724737 11.1209559,7.46410162 9.46410162,7.46410162 C7.91816222,7.46410162 6.62890127,8.63935599 6.47870375,10.165484 C6.42461067,10.7151134 5.93519697,11.1168248 5.38556766,11.0627318 C4.83593834,11.0086387 4.43422685,10.519225 4.48831993,9.96959568 C4.73903441,7.42213417 6.88700763,5.46410162 9.46410162,5.46410162 C12.2255254,5.46410162 14.4641016,7.70267787 14.4641016,10.4641016 C14.4641016,13.2255254 12.2255254,15.4641016 9.46410162,15.4641016 Z" id="Oval" fill-rule="nonzero" transform="translate(9.473770, 10.464102) rotate(-196.000000) translate(-9.473770, -10.464102) "></path>
                <rect id="Rectangle" transform="translate(11.116025, 7.397114) rotate(30.000000) translate(-11.116025, -7.397114) " x="10.1160254" y="2.89711432" width="2" height="9" rx="1"></rect>
                <path d="M11.5714746,5.09927858 L13.4375,6.33132939 L15.3705127,5.21530398 L15.3081814,0.953520265 C15.306566,0.843075127 15.2157231,0.754851137 15.105278,0.756466468 C15.0752199,0.756906086 15.0456476,0.764115845 15.01876,0.777559642 L13.3035254,1.63517696 L11.6133641,0.790096298 C11.5145684,0.740698448 11.3944338,0.780743318 11.3450359,0.879539017 C11.3293354,0.91093997 11.3221772,0.945920527 11.3242807,0.980964788 L11.5714746,5.09927858 Z" id="Path-4" transform="translate(13.337019, 3.483253) rotate(-330.000000) translate(-13.337019, -3.483253) "></path>
            </g>
        </g>
    </g>
</svg>