<?xml version="1.0" encoding="UTF-8"?>
<svg width="21px" height="20px" viewBox="0 0 21 20" version="1.1" xmlns="http://www.w3.org/2000/svg" xmlns:xlink="http://www.w3.org/1999/xlink">
    <!-- Generator: Sketch 52.5 (67469) - http://www.bohemiancoding.com/sketch -->
    <title>icon-android</title>
    <desc>Created with Sketch.</desc>
    <g id="slices" stroke="none" stroke-width="1" fill="none" fill-rule="evenodd">
        <g id="icon-android" fill="#CCCFD6">
            <g id="Group-2" transform="translate(2.000000, 1.000000)">
                <g id="Group">
                    <path d="M4,9 L4,14 L12,14 L12,9 L4,9 Z M2,7 L14,7 L14,14 C14,15.1045695 13.1045695,16 12,16 L4,16 C2.8954305,16 2,15.1045695 2,14 L2,7 Z" id="Rectangle" fill-rule="nonzero"></path>
                    <rect id="Rectangle" x="14" y="8" width="2" height="6" rx="1"></rect>
                    <rect id="Rectangle" x="0" y="8" width="2" height="6" rx="1"></rect>
                    <rect id="Rectangle" x="5" y="15" width="2" height="4" rx="1"></rect>
                    <rect id="Rectangle" x="9" y="15" width="2" height="4" rx="1"></rect>
                    <rect id="Rectangle" transform="translate(5.616025, 1.799038) rotate(-30.000000) translate(-5.616025, -1.799038) " x="4.6160254" y="0.299038106" width="2" height="3" rx="1"></rect>
                    <rect id="Rectangle" transform="translate(10.616025, 1.799038) scale(-1, 1) rotate(-30.000000) translate(-10.616025, -1.799038) " x="9.6160254" y="0.299038106" width="2" height="3" rx="1"></rect>
                    <path d="M4.06172235,7 L11.9382776,7 C11.6591254,4.92445489 10.4219113,4 8,4 C5.57808867,4 4.34087456,4.92445489 4.06172235,7 Z M2,8 C2,4.11438192 4.11438192,2 8,2 C11.8856181,2 14,4.11438192 14,8 L14,9 L2,9 L2,8 Z" id="Path-5" fill-rule="nonzero"></path>
                </g>
                <circle id="Oval" cx="6.5" cy="5.5" r="1"></circle>
                <circle id="Oval" cx="9.5" cy="5.5" r="1"></circle>
            </g>
        </g>
    </g>
</svg>