<?xml version="1.0" encoding="UTF-8"?>
<svg width="20px" height="20px" viewBox="0 0 20 20" version="1.1" xmlns="http://www.w3.org/2000/svg" xmlns:xlink="http://www.w3.org/1999/xlink">
    <!-- Generator: Sketch 52.5 (67469) - http://www.bohemiancoding.com/sketch -->
    <title>icon-file</title>
    <desc>Created with Sketch.</desc>
    <g id="slices" stroke="none" stroke-width="1" fill="none" fill-rule="evenodd">
        <g id="icon-file">
            <g id="file_icon" transform="translate(3.000000, 1.000000)">
                <rect id="Rectangle" fill="#BCC2CF" x="3" y="8" width="9" height="2" rx="1"></rect>
                <rect id="Rectangle" fill="#BCC2CF" x="3" y="12" width="9" height="2" rx="1"></rect>
                <path d="M2,1 C1.44771525,1 1,1.44771525 1,2 L1,16 C1,16.5522847 1.44771525,17 2,17 L13,17 C13.5522847,17 14,16.5522847 14,16 L14,4.8863292 C14,4.60412144 13.8807578,4.33505167 13.6716889,4.14549586 L10.4882376,1.25916666 C10.304283,1.09238115 10.0648564,1 9.81654868,1 L2,1 Z" id="Rectangle" stroke="#BCC2CF" stroke-width="2"></path>
                <polyline id="Path-6" stroke="#BCC2CF" stroke-width="2" fill="#BCC2CF" stroke-linejoin="round" points="10 2 10 5 14 5"></polyline>
            </g>
        </g>
    </g>
</svg>