<?xml version="1.0" encoding="UTF-8"?>
<svg width="122px" height="19px" viewBox="0 0 122 19" version="1.1" xmlns="http://www.w3.org/2000/svg" xmlns:xlink="http://www.w3.org/1999/xlink">
    <!-- Generator: Sketch 52.5 (67469) - http://www.bohemiancoding.com/sketch -->
    <title>logo</title>
    <desc>Created with Sketch.</desc>
    <defs>
        <linearGradient x1="76.5778186%" y1="0%" x2="60.814951%" y2="100%" id="linearGradient-1">
            <stop stop-color="#0234E9" offset="0%"></stop>
            <stop stop-color="#007DBD" offset="100%"></stop>
        </linearGradient>
        <path d="M9.00195312,15.3925781 L6.73535156,8.54980469 L6.69238281,8.54980469 L4.42578125,15.3925781 L9.00195312,15.3925781 Z M9.67871094,17.4980469 L3.73828125,17.4980469 L2.53515625,21 L0.021484375,21 L5.71484375,5.33789062 L7.70214844,5.33789062 L13.3955078,21 L10.8925781,21 L9.67871094,17.4980469 Z M15.2646484,17.1972656 C16.5107484,18.2213593 17.9931555,18.7405598 19.7119141,18.7548828 C21.7457784,18.7262368 22.7770181,17.9993561 22.8056641,16.5742188 C22.8199871,15.4068952 22.1396553,14.7050793 20.7646484,14.46875 C20.134437,14.3828121 19.4433631,14.2861333 18.6914062,14.1787109 C17.3450454,13.9567046 16.3209671,13.4589882 15.6191406,12.6855469 C14.8958297,11.890621 14.5341797,10.9238338 14.5341797,9.78515625 C14.5341797,8.41731087 14.9889277,7.31445731 15.8984375,6.4765625 C16.7793013,5.64582918 18.0289633,5.22330736 19.6474609,5.20898438 C21.5953873,5.25195334 23.2890553,5.79263804 24.7285156,6.83105469 L23.4072266,8.78613281 C22.2327415,8.01269145 20.9401112,7.61165379 19.5292969,7.58300781 C18.7988245,7.58300781 18.1901066,7.76562317 17.703125,8.13085938 C17.1946589,8.51041856 16.9332683,9.07616812 16.9189453,9.828125 C16.9189453,10.2792991 17.0943993,10.6874982 17.4453125,11.0527344 C17.7962257,11.4251321 18.3583946,11.682942 19.1318359,11.8261719 C19.5615256,11.8977868 20.1487593,11.9801428 20.8935547,12.0732422 C22.361661,12.273764 23.4466111,12.8001259 24.1484375,13.6523438 C24.8431024,14.4902386 25.1904297,15.4641872 25.1904297,16.5742188 C25.1116533,19.5677233 23.2783383,21.0859373 19.6904297,21.1289062 C17.3701056,21.1289062 15.3756594,20.4127676 13.7070312,18.9804688 L15.2646484,17.1972656 Z M27.15625,13.1689453 C27.15625,11.3499258 27.2099604,10.1324901 27.3173828,9.51660156 C27.4319667,8.90071307 27.6074207,8.40299669 27.84375,8.0234375 C28.2233092,7.30012659 28.8320271,6.65560179 29.6699219,6.08984375 C30.4934937,5.51692422 31.5211527,5.22330736 32.7529297,5.20898438 C33.9990297,5.22330736 35.0374307,5.51692422 35.8681641,6.08984375 C36.6917359,6.65560179 37.286131,7.30012659 37.6513672,8.0234375 C37.9163425,8.40299669 38.0989578,8.90071307 38.1992188,9.51660156 C38.2923182,10.1324901 38.3388672,11.3499258 38.3388672,13.1689453 C38.3388672,14.9593188 38.2923182,16.1695932 38.1992188,16.7998047 C38.0989578,17.4300162 37.9163425,17.9348939 37.6513672,18.3144531 C37.286131,19.037764 36.6917359,19.6751275 35.8681641,20.2265625 C35.0374307,20.799482 33.9990297,21.1002603 32.7529297,21.1289062 C31.5211527,21.1002603 30.4934937,20.799482 29.6699219,20.2265625 C28.8320271,19.6751275 28.2233092,19.037764 27.84375,18.3144531 C27.7291661,18.0781238 27.625326,17.8525401 27.5322266,17.6376953 C27.4462886,17.415689 27.3746748,17.1363949 27.3173828,16.7998047 C27.2099604,16.1695932 27.15625,14.9593188 27.15625,13.1689453 Z M29.5410156,13.1689453 C29.5410156,14.7086666 29.5983067,15.7506483 29.7128906,16.2949219 C29.8131515,16.8391954 30.0172511,17.2796207 30.3251953,17.6162109 C30.5758476,17.9384782 30.9052714,18.1998688 31.3134766,18.4003906 C31.7145202,18.6367199 32.1943331,18.7548828 32.7529297,18.7548828 C33.3186877,18.7548828 33.8092427,18.6367199 34.2246094,18.4003906 C34.6184916,18.1998688 34.9335926,17.9384782 35.1699219,17.6162109 C35.4778661,17.2796207 35.689127,16.8391954 35.8037109,16.2949219 C35.9111333,15.7506483 35.9648438,14.7086666 35.9648438,13.1689453 C35.9648438,11.6292241 35.9111333,10.5800809 35.8037109,10.0214844 C35.689127,9.49153381 35.4778661,9.05826991 35.1699219,8.72167969 C34.9335926,8.39941245 34.6184916,8.13086045 34.2246094,7.91601562 C33.8092427,7.70833229 33.3186877,7.5973308 32.7529297,7.58300781 C32.1943331,7.5973308 31.7145202,7.70833229 31.3134766,7.91601562 C30.9052714,8.13086045 30.5758476,8.39941245 30.3251953,8.72167969 C30.0172511,9.05826991 29.8131515,9.49153381 29.7128906,10.0214844 C29.5983067,10.5800809 29.5410156,11.6292241 29.5410156,13.1689453 Z" id="path-2"></path>
    </defs>
    <g id="slices" stroke="none" stroke-width="1" fill="none" fill-rule="evenodd">
        <g id="Artboard">
            <g id="LOGO" transform="translate(0.000000, -5.000000)">
                <g id="ASO">
                    <use fill="#FFFFFF" xlink:href="#path-2"></use>
                    <use fill="url(#linearGradient-1)" xlink:href="#path-2"></use>
                </g>
                <path d="M50.3671875,14.4013672 L45.2958984,14.4013672 L45.2958984,20 L43.3535156,20 L43.3535156,7.18554688 L45.2958984,7.18554688 L45.2958984,12.6787109 L50.3671875,12.6787109 L50.3671875,7.18554688 L52.3095703,7.18554688 L52.3095703,20 L50.3671875,20 L50.3671875,14.4013672 Z M56.2382812,16.1328125 C56.2382812,16.865238 56.4492166,17.4218731 56.8710938,17.8027344 C57.2636738,18.1894551 57.7792937,18.3828125 58.4179688,18.3828125 C59.1621131,18.3828125 59.8271455,18.086917 60.4130859,17.4951172 L61.7402344,18.6289062 C60.8085891,19.625005 59.7128969,20.1171876 58.453125,20.1054688 C57.9726538,20.1054688 57.5039085,20.035157 57.046875,19.8945312 C56.8183582,19.818359 56.5957042,19.715821 56.3789062,19.5869141 C56.1503895,19.4755854 55.9365244,19.3378914 55.7373047,19.1738281 C55.350584,18.8339827 55.0371106,18.359378 54.796875,17.75 C54.5332018,17.1640596 54.4013672,16.4023484 54.4013672,15.4648438 C54.4013672,14.5624955 54.5156239,13.812503 54.7441406,13.2148438 C54.9726574,12.6054657 55.2656232,12.1250018 55.6230469,11.7734375 C55.9863299,11.4160138 56.3935524,11.1582039 56.8447266,11 C57.2900413,10.8417961 57.72949,10.7626953 58.1630859,10.7626953 C59.2060599,10.7744141 60.087887,11.1171841 60.8085938,11.7910156 C61.5410193,12.4765659 61.9130859,13.4199159 61.9248047,14.6210937 L61.9248047,16.1328125 L56.2382812,16.1328125 Z M60.0878906,14.6210938 C60.064453,13.9121058 59.8740252,13.3759784 59.5166016,13.0126953 C59.1650373,12.6669905 58.7138699,12.4941406 58.1630859,12.4941406 C57.6123019,12.4941406 57.1611346,12.6669905 56.8095703,13.0126953 C56.4638655,13.3759784 56.2734377,13.9121058 56.2382812,14.6210938 L60.0878906,14.6210938 Z M63.8496094,7.18554688 L65.6865234,7.18554688 L65.6865234,17.6445312 C65.6865234,18.060549 65.9150368,18.2685547 66.3720703,18.2685547 L67.0048828,18.2685547 L67.0048828,20 L66.1875,20 C65.5195279,20 64.9687522,19.8330095 64.5351562,19.4990234 C64.0781227,19.159178 63.8496094,18.5878946 63.8496094,17.7851562 L63.8496094,7.18554688 Z M68.4902344,10.8769531 L70.3271484,10.8769531 L70.3271484,11.8261719 C70.9365265,11.146481 71.7216749,10.7919923 72.6826172,10.7626953 C73.8017634,10.7919923 74.619138,11.1904258 75.1347656,11.9580078 C75.38672,12.2451186 75.5595698,12.6230445 75.6533203,13.0917969 C75.7412114,13.5546898 75.7851562,14.3398382 75.7851562,15.4472656 C75.7851562,16.525396 75.7412114,17.2988258 75.6533203,17.7675781 C75.5595698,18.2363305 75.38672,18.6201157 75.1347656,18.9189453 C74.8828112,19.2705096 74.5517599,19.5517568 74.1416016,19.7626953 C73.7373027,19.9794933 73.2509794,20.0937499 72.6826172,20.1054688 C72.2138648,20.1054688 71.7949237,20.0029307 71.4257812,19.7978516 C71.0273418,19.6103506 70.6611345,19.3525407 70.3271484,19.0244141 L70.3271484,23.6914062 L68.4902344,23.6914062 L68.4902344,10.8769531 Z M72.1289062,18.2685547 C72.5625022,18.2685547 72.9052722,18.1865243 73.1572266,18.0224609 C73.4091809,17.8525382 73.5878901,17.6357435 73.6933594,17.3720703 C73.8105475,17.0966783 73.8896482,16.7919939 73.9306641,16.4580078 C73.9423829,16.1298812 73.9482422,15.7929705 73.9482422,15.4472656 C73.9482422,15.0839826 73.9423829,14.7294939 73.9306641,14.3837891 C73.8896482,14.0380842 73.8105475,13.7333998 73.6933594,13.4697266 C73.5878901,13.1943346 73.4091809,12.9775399 73.1572266,12.8193359 C72.9052722,12.6728508 72.5625022,12.5996094 72.1289062,12.5996094 C71.7187479,12.5996094 71.3935559,12.6845695 71.1533203,12.8544922 C70.9013659,13.0244149 70.7167975,13.2470689 70.5996094,13.5224609 C70.4882807,13.7978529 70.4150392,14.0966781 70.3798828,14.4189453 C70.3447264,14.7587908 70.3271484,15.1015608 70.3271484,15.4472656 C70.3271484,15.7695329 70.3447264,16.0917953 70.3798828,16.4140625 C70.4150392,16.7539079 70.4882807,17.0615221 70.5996094,17.3369141 C70.7167975,17.6123061 70.9013659,17.8349601 71.1533203,18.0048828 C71.3935559,18.1806649 71.7187479,18.2685547 72.1289062,18.2685547 Z M79.2216797,16.1328125 C79.2216797,16.865238 79.4326151,17.4218731 79.8544922,17.8027344 C80.2470723,18.1894551 80.7626921,18.3828125 81.4013672,18.3828125 C82.1455115,18.3828125 82.8105439,18.086917 83.3964844,17.4951172 L84.7236328,18.6289062 C83.7919875,19.625005 82.6962954,20.1171876 81.4365234,20.1054688 C80.9560523,20.1054688 80.487307,20.035157 80.0302734,19.8945312 C79.8017567,19.818359 79.5791026,19.715821 79.3623047,19.5869141 C79.1337879,19.4755854 78.9199229,19.3378914 78.7207031,19.1738281 C78.3339824,18.8339827 78.020509,18.359378 77.7802734,17.75 C77.5166002,17.1640596 77.3847656,16.4023484 77.3847656,15.4648438 C77.3847656,14.5624955 77.4990223,13.812503 77.7275391,13.2148438 C77.9560558,12.6054657 78.2490217,12.1250018 78.6064453,11.7734375 C78.9697284,11.4160138 79.3769509,11.1582039 79.828125,11 C80.2734397,10.8417961 80.7128885,10.7626953 81.1464844,10.7626953 C82.1894583,10.7744141 83.0712855,11.1171841 83.7919922,11.7910156 C84.5244177,12.4765659 84.8964843,13.4199159 84.9082031,14.6210937 L84.9082031,16.1328125 L79.2216797,16.1328125 Z M83.0712891,14.6210938 C83.0478514,13.9121058 82.8574237,13.3759784 82.5,13.0126953 C82.1484357,12.6669905 81.6972684,12.4941406 81.1464844,12.4941406 C80.5957004,12.4941406 80.144533,12.6669905 79.7929688,13.0126953 C79.4472639,13.3759784 79.2568361,13.9121058 79.2216797,14.6210938 L83.0712891,14.6210938 Z M86.8330078,10.8769531 L88.6699219,10.8769531 L88.6699219,11.84375 L88.7050781,11.84375 C89.3085968,11.1230433 90.0996045,10.7626953 91.078125,10.7626953 C91.8105505,10.7744141 92.449216,11.0087868 92.9941406,11.4658203 L91.6582031,13.0566406 C91.2714824,12.7519516 90.8701193,12.5996094 90.4541016,12.5996094 C89.9853492,12.5996094 89.583986,12.7519516 89.25,13.0566406 C88.8749981,13.3554702 88.6816407,13.8388638 88.6699219,14.5068359 L88.6699219,20 L86.8330078,20 L86.8330078,10.8769531 Z" id="Helper" fill="#1A233D"></path>
                <path d="M96.9228516,10.0332031 L98.3515625,10.0332031 L98.3515625,13.65625 C98.6113294,13.4055977 98.8961573,13.2005216 99.2060547,13.0410156 C99.4931655,12.8906242 99.8190086,12.8154297 100.183594,12.8154297 C101.054041,12.8382163 101.689777,13.148109 102.09082,13.7451172 C102.286785,13.9684256 102.421224,14.262368 102.494141,14.6269531 C102.5625,14.986981 102.59668,15.5930947 102.59668,16.4453125 C102.59668,17.2838584 102.5625,17.8854148 102.494141,18.25 C102.421224,18.6328144 102.286785,18.9358713 102.09082,19.1591797 C101.894856,19.4326186 101.637371,19.6513664 101.318359,19.8154297 C101.003905,19.9840503 100.625653,20.0729166 100.183594,20.0820312 C99.4361942,20.063802 98.8255232,19.7880886 98.3515625,19.2548828 L98.3515625,20 L96.9228516,20 L96.9228516,10.0332031 Z M99.7529297,14.2441406 C99.4339177,14.2441406 99.1809905,14.3102207 98.9941406,14.4423828 C98.7981761,14.5745449 98.6546229,14.7477203 98.5634766,14.9619141 C98.4768876,15.1761078 98.419922,15.4085274 98.3925781,15.6591797 C98.3652342,15.909832 98.3515625,16.1718736 98.3515625,16.4453125 C98.3515625,16.6959648 98.3652342,16.9511706 98.3925781,17.2109375 C98.419922,17.4752617 98.4768876,17.7145172 98.5634766,17.9287109 C98.6546229,18.1429047 98.7981761,18.3160801 98.9941406,18.4482422 C99.1809905,18.5849616 99.4339177,18.6533203 99.7529297,18.6533203 C100.090171,18.6533203 100.35677,18.5895189 100.552734,18.4619141 C100.748699,18.3297519 100.887695,18.1611338 100.969727,17.9560547 C101.060873,17.7418609 101.122396,17.5003269 101.154297,17.2314453 C101.163412,16.9762357 101.167969,16.7141941 101.167969,16.4453125 C101.167969,16.162759 101.163412,15.8870456 101.154297,15.6181641 C101.122396,15.3675118 101.060873,15.1350922 100.969727,14.9208984 C100.887695,14.7067047 100.748699,14.5380866 100.552734,14.4150391 C100.35677,14.3011062 100.090171,14.2441406 99.7529297,14.2441406 Z M105.269531,16.9921875 C105.269531,17.5618518 105.433592,17.9947902 105.761719,18.2910156 C106.067059,18.5917984 106.468096,18.7421875 106.964844,18.7421875 C107.543623,18.7421875 108.06087,18.5120466 108.516602,18.0517578 L109.548828,18.9335938 C108.824215,19.7083372 107.97201,20.0911459 106.992188,20.0820312 C106.618488,20.0820312 106.253908,20.0273443 105.898438,19.9179688 C105.720702,19.8587237 105.547527,19.7789719 105.378906,19.6787109 C105.201171,19.592122 105.034832,19.4850267 104.879883,19.3574219 C104.5791,19.0930976 104.335287,18.7239607 104.148438,18.25 C103.943358,17.7942686 103.84082,17.2018266 103.84082,16.4726562 C103.84082,15.7708298 103.929687,15.1875023 104.107422,14.7226562 C104.285157,14.2486955 104.513019,13.8750014 104.791016,13.6015625 C105.073569,13.3235663 105.390298,13.1230475 105.741211,13 C106.087567,12.8769525 106.42936,12.8154297 106.766602,12.8154297 C107.577804,12.8245443 108.263669,13.0911432 108.824219,13.6152344 C109.393883,14.1484402 109.683268,14.8821568 109.692383,15.8164062 L109.692383,16.9921875 L105.269531,16.9921875 Z M108.263672,15.8164062 C108.245443,15.2649712 108.097332,14.8479832 107.819336,14.5654297 C107.545897,14.2965481 107.194989,14.1621094 106.766602,14.1621094 C106.338214,14.1621094 105.987306,14.2965481 105.713867,14.5654297 C105.444986,14.8479832 105.296875,15.2649712 105.269531,15.8164062 L108.263672,15.8164062 Z M111.271484,10.7441406 L112.700195,10.7441406 L112.700195,12.9042969 L113.739258,12.9042969 L113.739258,13.9912109 L112.700195,13.9912109 L112.700195,18.1269531 C112.691081,18.486981 112.859699,18.6624349 113.206055,18.6533203 L113.739258,18.6533203 L113.739258,20 L112.994141,20 C112.492836,20 112.082684,19.8450536 111.763672,19.5351562 C111.435545,19.2389308 111.271484,18.8105497 111.271484,18.25 L111.271484,13.9912109 L110.560547,13.9912109 L110.560547,12.9042969 L111.271484,12.9042969 L111.271484,10.7441406 Z M118.804688,19.3710938 L118.777344,19.3710938 C118.645182,19.6126314 118.440106,19.790364 118.162109,19.9042969 C117.888671,20.0227871 117.510419,20.0820312 117.027344,20.0820312 C116.234371,20.0729166 115.6237,19.8632833 115.195312,19.453125 C114.744138,19.0520813 114.518555,18.5393911 114.518555,17.9150391 C114.518555,17.3180309 114.714516,16.8235697 115.106445,16.4316406 C115.498374,16.030597 116.072587,15.8255209 116.829102,15.8164062 L118.804688,15.8164062 L118.804688,15.0712891 C118.813802,14.446937 118.328455,14.1438801 117.348633,14.1621094 C116.993162,14.1621094 116.712892,14.1985673 116.507812,14.2714844 C116.293619,14.3580733 116.125001,14.5039052 116.001953,14.7089844 L114.880859,13.8544922 C115.42318,13.1435511 116.222976,12.7972004 117.280273,12.8154297 C118.173507,12.8063151 118.886716,12.9749332 119.419922,13.3212891 C119.953128,13.6767596 120.224284,14.2874306 120.233398,15.1533203 L120.233398,20 L118.804688,20 L118.804688,19.3710938 Z M118.804688,16.9921875 L117.095703,16.9921875 C116.266272,17.0104168 115.85612,17.2952446 115.865234,17.8466797 C115.865234,18.0882174 115.97233,18.2932934 116.186523,18.4619141 C116.391603,18.648764 116.731117,18.7421875 117.205078,18.7421875 C117.802086,18.7513021 118.223632,18.6806648 118.469727,18.5302734 C118.693035,18.3798821 118.804688,18.0380886 118.804688,17.5048828 L118.804688,16.9921875 Z" id="beta" fill="#CCCFD6"></path>
            </g>
        </g>
    </g>
</svg>